<svg id="Capa_1" enable-background="new 0 0 473.411 473.411" height="512" viewBox="0 0 473.411 473.411" width="512" xmlns="http://www.w3.org/2000/svg"><path d="m251.5 266.294h-236.706c-8.177 0-14.794-6.617-14.794-14.794s6.617-14.794 14.794-14.794h236.706c8.177 0 14.794 6.617 14.794 14.794s-6.617 14.794-14.794 14.794z"/><path d="m103.559 355.059h-88.765c-8.177 0-14.794-6.617-14.794-14.795s6.617-14.794 14.794-14.794h88.765c8.177 0 14.794 6.617 14.794 14.794s-6.617 14.795-14.794 14.795z"/><path id="path-1_3_" d="m458.617 325.47h-147.941c-8.177 0-14.794-6.617-14.794-14.794s6.617-14.794 14.794-14.794h147.941c8.177 0 14.794 6.617 14.794 14.794s-6.616 14.794-14.794 14.794z" transform="translate(10 10)"/><path d="m458.617 414.235h-295.882c-8.177 0-14.794-6.617-14.794-14.794s6.617-14.794 14.794-14.794h295.882c8.177 0 14.794 6.617 14.794 14.794s-6.616 14.794-14.794 14.794z"/><path d="m429.029 118.353h-207.117c-8.177 0-14.794-6.617-14.794-14.794s6.617-14.794 14.794-14.794h207.118c8.177 0 14.794 6.617 14.794 14.794s-6.618 14.794-14.795 14.794z"/><path id="path-1_2_" d="m162.735 88.765h-147.941c-8.177 0-14.794-6.617-14.794-14.794s6.617-14.794 14.794-14.794h147.941c8.177 0 14.794 6.617 14.794 14.794s-6.617 14.794-14.794 14.794z" transform="translate(0 2)"/><path id="path-2" d="m192.323 177.529h-177.529c-8.177 0-14.794-6.617-14.794-14.794s6.617-14.794 14.794-14.794h177.529c8.177 0 14.794 6.617 14.794 14.794.001 8.177-6.616 14.794-14.794 14.794z" transform="translate(0 5)"/><path id="path-2_1_" d="m458.617 207.118h-177.529c-8.177 0-14.794-6.617-14.794-14.794s6.617-14.794 14.794-14.794h177.529c8.177 0 14.794 6.617 14.794 14.794s-6.616 14.794-14.794 14.794z" transform="translate(9 6)"/></svg>